<svg width="167" height="102" viewBox="0 0 167 102" fill="none" xmlns="http://www.w3.org/2000/svg">
<path fill-rule="evenodd" clip-rule="evenodd" d="M160 15C163.866 15 167 18.134 167 22C167 25.866 163.866 29 160 29H120C123.866 29 127 32.134 127 36C127 39.866 123.866 43 120 43H142C145.866 43 149 46.134 149 50C149 53.866 145.866 57 142 57H131.826C126.952 57 123 60.134 123 64C123 66.5773 125 68.9107 129 71C132.866 71 136 74.134 136 78C136 81.866 132.866 85 129 85H46C42.134 85 39 81.866 39 78C39 74.134 42.134 71 46 71H7C3.13401 71 0 67.866 0 64C0 60.134 3.13401 57 7 57H47C50.866 57 54 53.866 54 50C54 46.134 50.866 43 47 43H22C18.134 43 15 39.866 15 36C15 32.134 18.134 29 22 29H62C58.134 29 55 25.866 55 22C55 18.134 58.134 15 62 15H160ZM160 43C163.866 43 167 46.134 167 50C167 53.866 163.866 57 160 57C156.134 57 153 53.866 153 50C153 46.134 156.134 43 160 43Z" fill="#F3F7FF"/>
<path fill-rule="evenodd" clip-rule="evenodd" d="M106.672 14L115.974 81.8427L116.809 88.649C117.079 90.8417 115.519 92.8375 113.327 93.1067L54.7665 100.297C52.5738 100.566 50.578 99.007 50.3088 96.8143L41.2931 23.3868C41.1584 22.2904 41.9381 21.2925 43.0344 21.1579C43.0413 21.1571 43.0483 21.1563 43.0552 21.1555L47.9136 20.6105M51.8421 20.1698L56.4291 19.6553L51.8421 20.1698Z" fill="white"/>
<path d="M107.91 13.8302C107.816 13.1463 107.186 12.6678 106.502 12.7616C105.818 12.8554 105.34 13.4859 105.433 14.1698L107.91 13.8302ZM115.974 81.8427L117.214 81.6904C117.214 81.6846 117.213 81.6788 117.212 81.6729L115.974 81.8427ZM50.3088 96.8143L51.5495 96.662L50.3088 96.8143ZM43.0552 21.1555L42.9159 19.9133L42.9159 19.9133L43.0552 21.1555ZM48.0529 21.8527C48.739 21.7758 49.2327 21.1572 49.1558 20.4712C49.0788 19.7851 48.4603 19.2913 47.7742 19.3683L48.0529 21.8527ZM51.7028 18.9276C51.0167 19.0046 50.5229 19.6231 50.5999 20.3092C50.6768 20.9952 51.2954 21.489 51.9814 21.412L51.7028 18.9276ZM56.5685 20.8975C57.2545 20.8205 57.7483 20.202 57.6714 19.5159C57.5944 18.8299 56.9759 18.3361 56.2898 18.4131L56.5685 20.8975ZM105.433 14.1698L114.735 82.0125L117.212 81.6729L107.91 13.8302L105.433 14.1698ZM114.733 81.9951L115.569 88.8014L118.05 88.4967L117.214 81.6904L114.733 81.9951ZM115.569 88.8014C115.754 90.3088 114.682 91.6809 113.174 91.866L113.479 94.3474C116.357 93.994 118.403 91.3746 118.05 88.4967L115.569 88.8014ZM113.174 91.866L54.6141 99.0563L54.9188 101.538L113.479 94.3474L113.174 91.866ZM54.6141 99.0563C53.1067 99.2414 51.7346 98.1694 51.5495 96.662L49.0681 96.9666C49.4215 99.8445 52.0409 101.891 54.9188 101.538L54.6141 99.0563ZM51.5495 96.662L42.5337 23.2344L40.0524 23.5391L49.0681 96.9666L51.5495 96.662ZM42.5337 23.2344C42.4833 22.8233 42.7756 22.4491 43.1867 22.3986L42.8821 19.9173C41.1005 20.136 39.8336 21.7576 40.0524 23.5391L42.5337 23.2344ZM43.1867 22.3986C43.1893 22.3983 43.1919 22.398 43.1945 22.3977L42.9159 19.9133C42.9046 19.9145 42.8933 19.9159 42.8821 19.9173L43.1867 22.3986ZM43.1945 22.3977L48.0529 21.8527L47.7742 19.3683L42.9159 19.9133L43.1945 22.3977ZM51.9814 21.412L56.5685 20.8975L56.2898 18.4131L51.7028 18.9276L51.9814 21.412ZM56.2898 18.4131L51.7028 18.9276L51.9814 21.412L56.5685 20.8975L56.2898 18.4131Z" fill="#1F64E7"/>
<path fill-rule="evenodd" clip-rule="evenodd" d="M104.14 18.2692L112.56 79.7529L113.317 85.9212C113.561 87.9083 112.167 89.7146 110.203 89.9557L57.7613 96.3948C55.7977 96.6359 54.0081 95.2204 53.7641 93.2333L45.6141 26.8568C45.4795 25.7605 46.2591 24.7626 47.3555 24.628L53.8431 23.8314" fill="#E8F0FE"/>
<path d="M63.6719 1.25H109.229C109.958 1.25 110.657 1.5395 111.173 2.05485L124.616 15.4898C125.132 16.0056 125.422 16.7053 125.422 17.4349V80C125.422 81.5188 124.191 82.75 122.672 82.75H63.6719C62.1531 82.75 60.9219 81.5188 60.9219 80V4C60.9219 2.48122 62.1531 1.25 63.6719 1.25Z" fill="white" stroke="#1F64E7" stroke-width="2.5"/>
<path d="M71 68H97M71 17H97H71ZM71 29H114H71ZM71 42H114H71ZM71 55H114H71Z" stroke="#75A4FE" stroke-width="2.5" stroke-linecap="round" stroke-linejoin="round"/>
</svg>
